<svg width="21.000000" height="22.000000" viewBox="0 0 21 22" fill="none" xmlns="http://www.w3.org/2000/svg"
     xmlns:xlink="http://www.w3.org/1999/xlink">
  <desc>
    Created with Pixso.
  </desc>
  <defs/>
  <path id="Vector"
        d="M11.48 0C16.73 0 21 4.26 21 9.51C21 10.06 20.56 10.5 20.01 10.5C19.47 10.5 19.03 10.06 19.03 9.51C19.03 5.34 15.65 1.96 11.48 1.96C10.93 1.96 10.5 1.53 10.5 0.98C10.5 0.43 10.93 0 11.48 0ZM11.81 7.87C12.16 7.87 12.49 8.01 12.74 8.26C12.98 8.5 13.12 8.84 13.12 9.18C13.12 9.53 12.98 9.87 12.74 10.11C12.49 10.36 12.16 10.5 11.81 10.5C11.46 10.5 11.13 10.36 10.88 10.11C10.63 9.87 10.5 9.53 10.5 9.18C10.5 8.84 10.63 8.5 10.88 8.26C11.13 8.01 11.46 7.87 11.81 7.87ZM10.5 4.92C10.5 4.37 10.93 3.93 11.48 3.93C14.56 3.93 17.06 6.43 17.06 9.51C17.06 10.06 16.62 10.5 16.07 10.5C15.53 10.5 15.09 10.06 15.09 9.51C15.09 7.52 13.47 5.9 11.48 5.9C10.93 5.9 10.5 5.46 10.5 4.92ZM4.81 0.05C5.61 -0.16 6.44 0.24 6.76 1L8.4 4.94C8.68 5.61 8.49 6.39 7.92 6.84L5.9 8.5C7.27 11.39 9.6 13.72 12.49 15.09L14.15 13.07C14.6 12.51 15.38 12.31 16.04 12.59L19.98 14.23C20.74 14.55 21.15 15.38 20.93 16.18L19.95 19.79C19.76 20.5 19.11 21 18.37 21C8.22 21 0 12.77 0 2.62C0 1.88 0.49 1.23 1.2 1.04L4.81 0.05Z"
        fill="#2E1815" fill-opacity="1.000000" fill-rule="nonzero"/>
</svg>
