<svg width="20.000000" height="20.000000" viewBox="0 0 20 20" fill="none" xmlns="http://www.w3.org/2000/svg"
     xmlns:xlink="http://www.w3.org/1999/xlink">
  <desc>
    Created with Pixso.
  </desc>
  <defs>
    <clipPath id="clip3_748">
      <rect id="Insta" width="20.000000" height="20.000000" fill="white" fill-opacity="0"/>
    </clipPath>
  </defs>
  <rect id="Insta" width="20.000000" height="20.000000" fill="#FFFFFF" fill-opacity="0"/>
  <g clip-path="url(#clip3_748)">
    <path id="Vector" d="M20 10C20 15.52 15.52 20 10 20C4.47 20 0 15.52 0 10C0 4.47 4.47 0 10 0C15.52 0 20 4.47 20 10Z"
          fill="#462421" fill-opacity="1.000000" fill-rule="evenodd"/>
    <path id="Vector"
          d="M10 6.58C8.1 6.58 6.58 8.1 6.58 10C6.58 11.89 8.1 13.41 10 13.41C11.89 13.41 13.41 11.89 13.41 10C13.41 8.1 11.89 6.58 10 6.58ZM10 12.22C8.77 12.22 7.77 11.22 7.77 10C7.77 8.77 8.77 7.77 10 7.77C11.22 7.77 12.22 8.77 12.22 10C12.22 11.22 11.22 12.22 10 12.22ZM14.35 6.44C14.35 6.88 13.99 7.23 13.55 7.23C13.11 7.23 12.76 6.88 12.76 6.44C12.76 6 13.11 5.64 13.55 5.64C13.99 5.64 14.35 6 14.35 6.44ZM16.61 7.25C16.56 6.18 16.32 5.23 15.54 4.45C14.76 3.67 13.81 3.43 12.74 3.38C11.64 3.31 8.35 3.31 7.25 3.38C6.18 3.43 5.23 3.67 4.45 4.45C3.67 5.23 3.43 6.17 3.38 7.24C3.31 8.34 3.31 11.64 3.38 12.74C3.43 13.81 3.67 14.76 4.45 15.54C5.23 16.32 6.18 16.56 7.25 16.61C8.35 16.68 11.64 16.68 12.74 16.61C13.81 16.56 14.76 16.32 15.54 15.54C16.32 14.76 16.56 13.81 16.61 12.74C16.68 11.64 16.68 8.35 16.61 7.25ZM15.19 13.93C14.96 14.51 14.51 14.96 13.93 15.19C13.05 15.54 10.97 15.46 10 15.46C9.03 15.46 6.94 15.54 6.07 15.19C5.48 14.96 5.03 14.51 4.8 13.93C4.45 13.05 4.53 10.96 4.53 10C4.53 9.03 4.45 6.94 4.8 6.06C5.03 5.48 5.48 5.03 6.07 4.8C6.94 4.45 9.03 4.53 10 4.53C10.97 4.53 13.05 4.45 13.93 4.8C14.51 5.03 14.96 5.48 15.19 6.06C15.54 6.94 15.46 9.03 15.46 10C15.46 10.96 15.54 13.05 15.19 13.93Z"
          fill="#DE716A" fill-opacity="1.000000" fill-rule="nonzero"/>
  </g>
</svg>
