<svg width="20.000000" height="27.000000" viewBox="0 0 20 27" fill="none" xmlns="http://www.w3.org/2000/svg" xmlns:xlink="http://www.w3.org/1999/xlink">
  <desc>
    Created with Pixso.
  </desc>
  <defs/>
  <path id="Vector" d="M11.23 26.39C13.9 22.99 20 14.77 20 10.15C20 4.54 15.52 0 10 0C4.47 0 0 4.54 0 10.15C0 14.77 6.09 22.99 8.76 26.39C9.4 27.2 10.59 27.2 11.23 26.39ZM10 6.76C10.88 6.76 11.73 7.12 12.35 7.75C12.98 8.39 13.33 9.25 13.33 10.15C13.33 11.04 12.98 11.9 12.35 12.54C11.73 13.17 10.88 13.53 10 13.53C9.11 13.53 8.26 13.17 7.64 12.54C7.01 11.9 6.66 11.04 6.66 10.15C6.66 9.25 7.01 8.39 7.64 7.75C8.26 7.12 9.11 6.76 10 6.76Z" fill="#462421" fill-opacity="1.000000" fill-rule="nonzero"/>
</svg>
