<svg width="22.000000" height="17.000000" viewBox="0 0 22 17" fill="none" xmlns="http://www.w3.org/2000/svg" xmlns:xlink="http://www.w3.org/1999/xlink">
  <desc>
    Created with Pixso.
  </desc>
  <defs/>
  <path id="Vector" d="M2.06 -0.25C0.92 -0.25 0 0.67 0 1.81C0 2.46 0.3 3.07 0.82 3.46L10.17 10.47C10.66 10.84 11.33 10.84 11.82 10.47L21.17 3.46C21.69 3.07 22 2.46 22 1.81C22 0.67 21.07 -0.25 19.93 -0.25L2.06 -0.25ZM0 4.56L0 13.5C0 15.01 1.23 16.25 2.75 16.25L19.25 16.25C20.76 16.25 22 15.01 22 13.5L22 4.56L12.64 11.57C11.67 12.3 10.32 12.3 9.35 11.57L0 4.56Z" fill="#462421" fill-opacity="1.000000" fill-rule="nonzero"/>
</svg>
