<svg width="20.000000" height="20.000000" viewBox="0 0 20 20" fill="none" xmlns="http://www.w3.org/2000/svg"
     xmlns:xlink="http://www.w3.org/1999/xlink">
  <desc>
    Created with Pixso.
  </desc>
  <defs/>
  <path id="Vector"
        d="M10 0C4.47 0 0 4.47 0 10C0 15.52 4.47 20 10 20C15.52 20 20 15.52 20 10C20 4.47 15.52 0 10 0ZM14.63 6.8C14.48 8.38 13.83 12.21 13.5 13.99C13.36 14.73 13.08 14.99 12.81 15.01C12.23 15.06 11.79 14.63 11.23 14.26C10.35 13.68 9.85 13.32 9 12.76C8.01 12.11 8.65 11.75 9.21 11.17C9.36 11.01 11.92 8.69 11.97 8.47C11.97 8.45 11.98 8.35 11.92 8.3C11.86 8.25 11.78 8.26 11.72 8.28C11.63 8.3 10.22 9.23 7.5 11.07C7.1 11.34 6.74 11.47 6.41 11.47C6.06 11.46 5.37 11.26 4.86 11.1C4.23 10.9 3.73 10.79 3.78 10.44C3.8 10.26 4.05 10.08 4.52 9.89C7.44 8.62 9.38 7.78 10.35 7.38C13.13 6.22 13.71 6.02 14.08 6.01C14.17 6.01 14.35 6.03 14.47 6.13C14.55 6.2 14.6 6.3 14.61 6.4C14.63 6.53 14.64 6.66 14.63 6.8Z"
        fill="#462421" fill-opacity="1.000000" fill-rule="nonzero"/>
</svg>
