<svg width="26.000000" height="26.000000" viewBox="0 0 26 26" fill="none" xmlns="http://www.w3.org/2000/svg" xmlns:xlink="http://www.w3.org/1999/xlink">
  <desc>
    Created with Pixso.
  </desc>
  <defs/>
  <path id="Vector" d="M13 0C16.44 0 19.75 1.36 22.19 3.8C24.63 6.24 26 9.55 26 13C26 16.44 24.63 19.75 22.19 22.19C19.75 24.63 16.44 26 13 26C9.55 26 6.24 24.63 3.8 22.19C1.36 19.75 0 16.44 0 13C0 9.55 1.36 6.24 3.8 3.8C6.24 1.36 9.55 0 13 0ZM11.78 6.09L11.78 13C11.78 13.4 11.98 13.78 12.32 14.01L17.19 17.26C17.75 17.64 18.51 17.48 18.89 16.92C19.26 16.36 19.11 15.61 18.55 15.23L14.21 12.35L14.21 6.09C14.21 5.41 13.67 4.87 13 4.87C12.32 4.87 11.78 5.41 11.78 6.09Z" fill="#462421" fill-opacity="1.000000" fill-rule="nonzero"/>
</svg>
