<svg width="20.000000" height="20.000000" viewBox="0 0 20 20" fill="none" xmlns="http://www.w3.org/2000/svg" xmlns:xlink="http://www.w3.org/1999/xlink">
  <desc>
    Created with Pixso.
  </desc>
  <defs/>
  <path id="Ellipse 1" d="M20 10C20 15.52 15.52 20 10 20C4.47 20 0 15.52 0 10C0 4.47 4.47 0 10 0C15.52 0 20 4.47 20 10Z" fill="#462421" fill-opacity="1.000000" fill-rule="evenodd"/>
  <path id="Vector" d="M13.83 3.33L15.87 3.33L11.41 8.98L16.66 16.66L12.55 16.66L9.32 12L5.64 16.66L3.59 16.66L8.37 10.62L3.33 3.33L7.55 3.33L10.46 7.59L13.83 3.33ZM13.11 15.31L14.24 15.31L6.93 4.61L5.71 4.61L13.11 15.31Z" fill="#DE716A" fill-opacity="1.000000" fill-rule="nonzero"/>
</svg>
